<svg preserveAspectRatio="none" width="100%" height="100%" overflow="visible" style="display: block;" viewBox="0 0 410 108" fill="none" xmlns="http://www.w3.org/2000/svg">
<g id="Union" filter="url(#filter0_d_1446_383)">
<mask id="path-1-inside-1_1446_383" fill="white">
<path d="M207.144 8C219.564 8 231.006 12.183 240.141 19.2166C244.505 22.5766 249.655 25 255.162 25H386C397.046 25 406 33.9543 406 45V107C406 107.552 405.552 108 405 108H5C4.44776 108 4.00007 107.552 4 107V45C4 33.9543 12.9543 25 24 25H159.126C164.633 25 169.783 22.5766 174.147 19.2166C183.281 12.1831 194.724 8.0001 207.144 8Z"/>
</mask>
<path d="M207.144 8C219.564 8 231.006 12.183 240.141 19.2166C244.505 22.5766 249.655 25 255.162 25H386C397.046 25 406 33.9543 406 45V107C406 107.552 405.552 108 405 108H5C4.44776 108 4.00007 107.552 4 107V45C4 33.9543 12.9543 25 24 25H159.126C164.633 25 169.783 22.5766 174.147 19.2166C183.281 12.1831 194.724 8.0001 207.144 8Z" fill="var(--fill-0, #07190D)"/>
<path d="M207.144 8V7H207.144L207.144 8ZM406 107L407 107V107H406ZM4 107H3V107L4 107ZM174.147 19.2166L173.537 18.4243L174.147 19.2166ZM240.141 19.2166L239.531 20.0089L240.141 19.2166ZM207.144 8V9C219.335 9 230.565 13.1053 239.531 20.0089L240.141 19.2166L240.751 18.4243C231.448 11.2608 219.792 7 207.144 7V8ZM255.162 25V26H386V25V24H255.162V25ZM406 45H405V107H406H407V45H406ZM406 107L405 107V107V108V109C406.105 109 407 108.104 407 107L406 107ZM405 108V107H5V108V109H405V108ZM5 108V107V107L4 107L3 107C3.00013 108.104 3.89535 109 5 109V108ZM4 107H5V45H4H3V107H4ZM24 25V26H159.126V25V24H24V25ZM174.147 19.2166L174.757 20.0089C183.723 13.1053 194.952 9.0001 207.144 9L207.144 8L207.144 7C194.495 7.0001 182.84 11.2609 173.537 18.4243L174.147 19.2166ZM159.126 25V26C164.929 26 170.289 23.4492 174.757 20.0089L174.147 19.2166L173.537 18.4243C169.278 21.704 164.337 24 159.126 24V25ZM4 45H5C5 34.5066 13.5066 26 24 26V25V24C12.402 24 3 33.402 3 45H4ZM386 25V26C396.493 26 405 34.5066 405 45H406H407C407 33.402 397.598 24 386 24V25ZM240.141 19.2166L239.531 20.0089C243.999 23.4492 249.359 26 255.162 26V25V24C249.951 24 245.01 21.704 240.751 18.4243L240.141 19.2166Z" fill="var(--stroke-0, #E9AF41)" mask="url(#path-1-inside-1_1446_383)"/>
<path d="M207.144 8V7H207.144L207.144 8ZM406 107L407 107V107H406ZM4 107H3V107L4 107ZM174.147 19.2166L173.537 18.4243L174.147 19.2166ZM240.141 19.2166L239.531 20.0089L240.141 19.2166ZM207.144 8V9C219.335 9 230.565 13.1053 239.531 20.0089L240.141 19.2166L240.751 18.4243C231.448 11.2608 219.792 7 207.144 7V8ZM255.162 25V26H386V25V24H255.162V25ZM406 45H405V107H406H407V45H406ZM406 107L405 107V107V108V109C406.105 109 407 108.104 407 107L406 107ZM405 108V107H5V108V109H405V108ZM5 108V107V107L4 107L3 107C3.00013 108.104 3.89535 109 5 109V108ZM4 107H5V45H4H3V107H4ZM24 25V26H159.126V25V24H24V25ZM174.147 19.2166L174.757 20.0089C183.723 13.1053 194.952 9.0001 207.144 9L207.144 8L207.144 7C194.495 7.0001 182.84 11.2609 173.537 18.4243L174.147 19.2166ZM159.126 25V26C164.929 26 170.289 23.4492 174.757 20.0089L174.147 19.2166L173.537 18.4243C169.278 21.704 164.337 24 159.126 24V25ZM4 45H5C5 34.5066 13.5066 26 24 26V25V24C12.402 24 3 33.402 3 45H4ZM386 25V26C396.493 26 405 34.5066 405 45H406H407C407 33.402 397.598 24 386 24V25ZM240.141 19.2166L239.531 20.0089C243.999 23.4492 249.359 26 255.162 26V25V24C249.951 24 245.01 21.704 240.751 18.4243L240.141 19.2166Z" fill="url(#paint0_linear_1446_383)" fill-opacity="0.46" mask="url(#path-1-inside-1_1446_383)"/>
</g>
<defs>
<filter id="filter0_d_1446_383" x="0" y="0" width="410" height="108" filterUnits="userSpaceOnUse" color-interpolation-filters="sRGB">
<feFlood flood-opacity="0" result="BackgroundImageFix"/>
<feColorMatrix in="SourceAlpha" type="matrix" values="0 0 0 0 0 0 0 0 0 0 0 0 0 0 0 0 0 0 127 0" result="hardAlpha"/>
<feOffset dy="-4"/>
<feGaussianBlur stdDeviation="2"/>
<feComposite in2="hardAlpha" operator="out"/>
<feColorMatrix type="matrix" values="0 0 0 0 0.913725 0 0 0 0 0.686275 0 0 0 0 0.254902 0 0 0 0.25 0"/>
<feBlend mode="normal" in2="BackgroundImageFix" result="effect1_dropShadow_1446_383"/>
<feBlend mode="normal" in="SourceGraphic" in2="effect1_dropShadow_1446_383" result="shape"/>
</filter>
<linearGradient id="paint0_linear_1446_383" x1="4" y1="54.5" x2="406" y2="54.5" gradientUnits="userSpaceOnUse">
<stop stop-color="#F2C36B" stop-opacity="0"/>
<stop offset="1" stop-color="#DD8F1F"/>
</linearGradient>
</defs>
</svg>
