<svg preserveAspectRatio="none" width="100%" height="100%" overflow="visible" style="display: block;" viewBox="0 0 18 18" fill="none" xmlns="http://www.w3.org/2000/svg">
<g id="SVG" clip-path="url(#clip0_0_10)">
<path id="Vector" d="M13.3158 0.368447H4.68424C2.30069 0.368447 0.368447 2.30069 0.368447 4.68424V13.3158C0.368447 15.6994 2.30069 17.6316 4.68424 17.6316H13.3158C15.6994 17.6316 17.6316 15.6994 17.6316 13.3158V4.68424C17.6316 2.30069 15.6994 0.368447 13.3158 0.368447Z" fill="var(--fill-0, #1B1240)" stroke="var(--stroke-0, #2FE6C8)" stroke-width="0.431579"/>
<path id="Vector_2" d="M5.11578 6.41052C5.83085 6.41052 6.41052 5.83085 6.41052 5.11578C6.41052 4.40072 5.83085 3.82104 5.11578 3.82104C4.40072 3.82104 3.82104 4.40072 3.82104 5.11578C3.82104 5.83085 4.40072 6.41052 5.11578 6.41052Z" fill="var(--fill-0, #2FE6C8)"/>
<path id="Vector_3" d="M12.8842 6.41052C13.5993 6.41052 14.179 5.83085 14.179 5.11578C14.179 4.40072 13.5993 3.82104 12.8842 3.82104C12.1692 3.82104 11.5895 4.40072 11.5895 5.11578C11.5895 5.83085 12.1692 6.41052 12.8842 6.41052Z" fill="var(--fill-0, #2FE6C8)"/>
<path id="Vector_4" d="M8.99997 10.2948C9.71503 10.2948 10.2947 9.71509 10.2947 9.00003C10.2947 8.28496 9.71503 7.70529 8.99997 7.70529C8.28491 7.70529 7.70523 8.28496 7.70523 9.00003C7.70523 9.71509 8.28491 10.2948 8.99997 10.2948Z" fill="var(--fill-0, #2FE6C8)"/>
<path id="Vector_5" d="M5.11578 14.179C5.83085 14.179 6.41052 13.5993 6.41052 12.8842C6.41052 12.1692 5.83085 11.5895 5.11578 11.5895C4.40072 11.5895 3.82104 12.1692 3.82104 12.8842C3.82104 13.5993 4.40072 14.179 5.11578 14.179Z" fill="var(--fill-0, #2FE6C8)"/>
<path id="Vector_6" d="M12.8842 14.179C13.5993 14.179 14.179 13.5993 14.179 12.8842C14.179 12.1692 13.5993 11.5895 12.8842 11.5895C12.1692 11.5895 11.5895 12.1692 11.5895 12.8842C11.5895 13.5993 12.1692 14.179 12.8842 14.179Z" fill="var(--fill-0, #2FE6C8)"/>
</g>
<defs>
<clipPath id="clip0_0_10">
<rect width="18" height="18" fill="white"/>
</clipPath>
</defs>
</svg>
